

<svg xmlns="http://www.w3.org/2000/svg" viewBox="0 0 37 36" fill="none" id="theme-icon">
       <path id="land" d="M1.5708 0.730469H35.8565V35.0162H1.5708V0.730469Z" fill="${colors['land']}"/>
            <path id="water" d="M5.22686 3.76092C5.46743 5.28092 6.49486 6.55064 7.89657 7.14549C13.944 9.70835 20.3046 4.35978 12.8006 2.0855C11.4463 1.67464 4.75029 0.756925 5.22686 3.76035V3.76092ZM1.80171 14.7472C0.629714 15.6141 0.680571 16.1232 2.36229 17.6524C4.09543 19.2838 6.28743 20.4049 8.68228 20.8638C10.9251 21.2712 11.8937 22.2906 12.4034 24.6866C13.0663 27.8981 14.0857 29.1209 18.316 31.8221C22.2406 34.3706 22.5469 34.4729 23.2091 33.5552C23.5663 33.0455 23.872 32.4849 23.872 32.3323C23.872 32.1278 22.1389 30.9049 20.0491 29.5798C15.9714 26.9798 15.5126 26.4701 15.0034 23.6158C14.6463 21.5261 13.0663 19.2838 11.7406 18.8758C11.2823 18.7232 9.90629 18.3661 8.68286 18.0604C7.46 17.7546 5.62457 16.7346 4.60514 15.7666C2.97429 14.3392 2.56629 14.1866 1.80171 14.7472Z" fill="${colors['water']}"/>
            <path id="park" d="M30.9406 2.63108L27.9126 0.824219L26.6252 2.88822L30.9406 5.6505V2.63108ZM6.09948 11.6356L15.4395 11.3099L16.5989 12.1579L13.7 16.9865L5.97034 13.7236L6.09948 11.6356ZM4.89148 32.7145C5.68005 33.1671 6.54062 33.3848 7.16919 33.3065C7.64005 33.2482 8.16348 33.0916 8.44576 32.7054C8.62691 32.4562 8.70862 32.1414 8.67377 31.7911C8.64234 31.4825 8.49605 30.6408 7.69319 30.5225C7.5788 30.5079 7.46301 30.5079 7.34862 30.5225C6.65376 30.5911 6.03091 30.7391 5.41719 30.8894C4.86348 31.0248 4.34291 31.2025 4.11662 31.5859C3.92405 31.9134 4.22805 32.3334 4.89148 32.7145ZM34.1469 24.8134C35.0509 26.8048 35.2532 28.7654 34.7309 30.0162C34.34 30.9522 33.6452 31.9225 32.4166 32.2134C31.6252 32.4008 30.6938 32.3288 29.7195 31.9848C28.8606 31.6825 26.548 30.7299 26.5989 28.9665C26.656 26.9322 29.1 22.6574 31.3229 22.3299C32.3423 22.1802 33.3863 23.1374 34.1469 24.8134Z" fill="${colors['park']}"/>
            <path id="road-simple" d="M19.8697 2.88477L15.7617 9.80819M15.7617 9.80819L4.03889 9.67791M15.7617 9.80819L35.3795 22.1619M35.3429 14.8979L19.0949 4.62362M36.0515 10.0042L25.6812 15.9413M29.6749 18.3562L22.8457 30.1665M25.3589 15.7448L18.532 27.5551M18.9823 11.6351L14.7315 18.7493M14.7315 18.7493L17.5012 26.5779L30.1195 34.6236M14.7315 18.7493L3.91032 14.5059L4.12174 9.29162M17.8989 26.7768L1.0166 30.5973" stroke="${colors['road-simple']}" stroke-width="0.774857" stroke-miterlimit="10"/>
         <path id="building" d="M23.9659 2.50293L27.8802 5.00922L27.2562 6.01036L23.3413 3.50464L23.9659 2.50293ZM2.79102 25.9944L6.9933 25.2572L7.4413 27.8818L3.23902 28.6184L2.79102 25.9938V25.9944ZM23.0659 4.02864L26.9802 6.53436L26.3556 7.5355L22.4413 5.02922L23.0659 4.02864ZM33.0836 8.21836L28.8527 5.50979L27.2299 8.1115L31.4607 10.8201L33.0836 8.21836ZM19.4224 6.4435L23.1253 8.81379L21.451 11.4995L17.7802 9.13779L19.4224 6.4435ZM19.5476 14.1692L16.6156 18.9389L18.1927 23.5104L18.703 23.8429L23.0784 16.3966L19.5476 14.1692ZM27.8904 18.9624L25.8104 17.5332L24.9476 18.9869L27.0276 20.4166L27.8904 18.9624ZM24.6847 19.4789L26.7636 20.9086L25.9007 22.3624L23.8207 20.9338L24.6847 19.4789ZM25.6373 22.8549L23.5579 21.4252L22.695 22.8795L24.7744 24.3086L25.6373 22.8549ZM22.4316 23.3715L24.511 24.8006L23.6482 26.2549L21.5682 24.8252L22.4316 23.3715ZM23.3847 26.7469L21.3047 25.3178L20.4419 26.7715L22.5219 28.2012L23.3847 26.7469ZM31.5584 14.1955L36.999 17.6784L35.3762 20.2801L29.9356 16.7972L31.5584 14.1955ZM7.90073 22.1749L4.12644 22.8361L4.5053 25.0561L8.28016 24.3949L7.90073 22.1749ZM9.66073 32.0184L12.8642 31.4572L13.3213 34.1486L10.1184 34.7098L9.66073 32.0184ZM15.0984 32.2298L13.8276 32.4526L14.3082 35.2698L15.5796 35.0469L15.0984 32.2298ZM9.32702 29.8286L12.5299 29.2675L12.7762 30.7098L9.5733 31.2709L9.32702 29.8286ZM10.8236 24.5886L7.53216 25.1658L7.83044 26.9126L11.1219 26.3361L10.8236 24.5886ZM22.2299 11.9904L25.7527 14.2561L28.8264 12.4486L23.9053 9.30522L22.2299 11.9904Z" fill="${colors['building']}"/>
</svg>
